#!OML:ASF H:\Terrain\Patient Classification 1\Animal1\Tuesday\Animal1.ASF
:FULLY-SPECIFIED
:DEGREES
1743
root 13.9148 16.7525 9.71187 -354.69 -9.23485 722.886
lowerback -4.19854 -0.38904 -3.68737
upperback -5.76896 -0.477107 -0.032751
thorax -3.57591 -0.102317 2.02634
lowerneck -9.37864 0.0882855 -3.47877
upperneck 17.9303 -0.730895 7.54634
head 7.05021 0.0600914 2.96704
rclavicle 2.43511e-015 -5.1684e-015
rhumerus -41.4113 -0.0207107 -82.1414
rradius 24.1754
rwrist -7.91693
rhand -14.1067 25.4116
rfingers 7.12502
rthumb 12.0262 -4.22291
lclavicle 2.43511e-015 -5.1684e-015
lhumerus -43.6582 8.51576 81.1228
lradius 32.1385
lwrist -33.3339
lhand 0.603 42.0039
lfingers 7.12502
lthumb 26.1678 70.2204
rfemur -23.1063 -1.53075 23.8363
rtibia 48.4674
rfoot -17.8244 -20.3495
rtoes 18.6899
lfemur -20.6978 -15.1378 -25.4696
ltibia 26.1202
lfoot -13.1757 11.9559
ltoes 17.1677
1744
root 13.8763 16.7663 9.74532 -354.616 -9.03621 722.75
lowerback -4.17857 -0.423546 -3.56429
upperback -5.76694 -0.524093 0.0235591
thorax -3.58169 -0.129126 2.01521
lowerneck -9.34888 0.101629 -3.40078
upperneck 17.7679 -0.692012 7.41588
head 6.99009 0.0706345 2.91127
rclavicle 6.80837e-015 -1.19271e-015
rhumerus -41.4726 -0.3501 -82.0693
rradius 24.0592
rwrist -7.54497
rhand -14.0664 26.5053
rfingers 7.12502
rthumb 12.0651 -3.12693
lclavicle 6.80837e-015 -1.19271e-015
lhumerus -43.5846 8.325 81.2303
lradius 32.0723
lwrist -32.8996
lhand 1.79349 41.9762
lfingers 7.12502
lthumb 27.3071 70.0187
rfemur -23.2752 -1.24057 23.5266
rtibia 48.6198
rfoot -18.736 -20.6829
rtoes 21.1568
lfemur -20.4958 -15.3229 -25.2238
ltibia 25.9509
lfoot -12.8623 12.3173
ltoes 13.7632
1745
root 13.84 16.7756 9.78222 -354.641 -8.91103 722.811
lowerback -4.16074 -0.413706 -3.60345
upperback -5.74149 -0.510858 -0.000284985
thorax -3.566 -0.121991 2.01267
lowerneck -9.45724 0.125065 -3.31507
upperneck 17.8721 -0.656904 7.30562
head 7.04089 0.0871506 2.86641
rclavicle -6.08778e-015 5.1684e-015
rhumerus -41.7571 -0.406646 -82.1408
rradius 24.2802
rwrist -7.69311
rhand -13.4228 27.051
rfingers 7.12502
rthumb 12.6856 -2.54368
lclavicle -6.08778e-015 5.1684e-015
lhumerus -43.5694 8.05912 81.3673
lradius 32.1339
lwrist -32.3943
lhand 1.1918 41.9005
lfingers 7.12502
lthumb 26.7314 70.0322
rfemur -23.4069 -0.961534 22.9458
rtibia 48.6163
rfoot -18.4985 -21.8552
rtoes 20.7447
lfemur -20.258 -15.3466 -25.2457
ltibia 25.8972
lfoot -12.7673 12.3524
ltoes 11.9552
1746
root 13.8039 16.7872 9.81398 -354.731 -8.76653 722.687
lowerback -3.96636 -0.404396 -3.46017
upperback -5.73479 -0.50648 0.0556413
thorax -3.66808 -0.122194 1.99157
lowerneck -9.41838 0.1934 -3.37299
upperneck 17.9369 -0.552815 7.28725
head 7.04855 0.131954 2.88008
rclavicle 3.26255e-014 1.07344e-014
rhumerus -42.0027 -0.217139 -82.1627
rradius 24.4029
rwrist -7.67264
rhand -13.3413 26.9124
rfingers 7.12502
rthumb 12.7642 -2.6774
lclavicle 3.26255e-014 1.07344e-014
lhumerus -43.6359 7.9689 81.5016
lradius 32.2985
lwrist -32.0121
lhand 0.321317 41.9951
lfingers 7.12502
lthumb 25.8981 70.2513
rfemur -23.4407 -0.60179 22.5413
rtibia 48.4709
rfoot -18.1543 -23.0124
rtoes 20.6785
lfemur -19.9128 -15.2674 -25.1081
ltibia 25.8426
lfoot -13.0403 12.2503
ltoes 11.0048
1747
root 13.7662 16.7949 9.84978 -354.84 -8.55055 722.689
lowerback -3.78628 -0.451239 -3.48452
upperback -5.73039 -0.573389 0.129782
thorax -3.76004 -0.151218 2.08274
lowerneck -9.32769 0.220831 -3.54302
upperneck 17.8081 -0.483053 7.30254
head 6.98646 0.152681 2.91672
rclavicle -4.3832e-014 -7.35503e-015
rhumerus -42.1111 -0.282693 -81.9289
rradius 24.2444
rwrist -7.22273
rhand -14.2664 24.837
rfingers 7.12502
rthumb 11.8723 -4.80641
lclavicle -4.3832e-014 -7.35503e-015
lhumerus -43.575 7.88769 81.7233
lradius 32.1615
lwrist -31.6763
lhand 1.34494 42.2049
lfingers 7.12502
lthumb 26.878 70.3142
rfemur -23.3344 -0.294222 21.9855
rtibia 48.2129
rfoot -19.1354 -23.4963
rtoes 22.5334
lfemur -19.5612 -15.5669 -25.0584
ltibia 25.8037
lfoot -13.2971 12.4659
ltoes 10.1639
1748
root 13.7224 16.8103 9.87944 -354.752 -8.31638 722.384
lowerback -3.72983 -0.505478 -3.29436
upperback -5.72955 -0.644182 0.324445
thorax -3.78531 -0.189098 2.17757
lowerneck -9.29113 0.217263 -3.67303
upperneck 17.6381 -0.443824 7.23076
head 6.92279 0.15471 2.91513
rclavicle 9.6659e-015 9.14409e-015
rhumerus -42.1762 -0.443647 -81.6738
rradius 24.1604
rwrist -6.84619
rhand -16.3986 21.0997
rfingers 7.12502
rthumb 9.81564 -8.65154
lclavicle 9.6659e-015 9.14409e-015
lhumerus -43.5062 8.15306 81.7548
lradius 31.9265
lwrist -31.9299
lhand 2.40604 42.0233
lfingers 7.12502
lthumb 27.8928 69.9721
rfemur -23.4806 0.266139 21.761
rtibia 47.839
rfoot -20.2703 -23.7339
rtoes 25.7042
lfemur -19.4557 -16.065 -24.5348
ltibia 25.7424
lfoot -13.3429 12.8072
ltoes 9.67737
1749
root 13.6766 16.8276 9.89479 -354.533 -8.0298 721.921
lowerback -3.60837 -0.52822 -2.90668
upperback -5.80211 -0.678384 0.496692
thorax -3.92753 -0.214461 2.1399
lowerneck -9.30026 0.191895 -3.68153
upperneck 17.665 -0.462218 7.14403
head 6.93424 0.138472 2.88723
rclavicle -5.2181e-016 7.7526e-015
rhumerus -42.4229 -0.332463 -81.7093
rradius 24.3128
rwrist -7.09515
rhand -17.0414 21.4617
rfingers 7.12502
rthumb 9.19537 -8.31777
lclavicle -5.2181e-016 7.7526e-015
lhumerus -43.5255 8.52438 81.5934
lradius 31.9364
lwrist -32.5706
lhand 1.45557 41.7448
lfingers 7.12502
lthumb 26.9838 69.8377
rfemur -23.8373 1.08503 21.6508
rtibia 47.3768
rfoot -20.6398 -24.0337
rtoes 27.9274
lfemur -19.5145 -16.3036 -23.8036
ltibia 25.5158
lfoot -13.0113 13.0116
ltoes 8.40364
1750
root 13.6351 16.8359 9.91632 -354.464 -7.75452 721.876
lowerback -3.49355 -0.529797 -2.80998
upperback -5.84441 -0.685665 0.476467
thorax -4.03679 -0.2202 2.06623
lowerneck -9.36848 0.160501 -3.65882
upperneck 17.7296 -0.525282 7.22142
head 6.97097 0.118197 2.90505
rclavicle -6.06293e-015 4.96962e-015
rhumerus -42.7897 -0.0245447 -81.9005
rradius 24.5594
rwrist -7.718
rhand -15.8783 24.6193
rfingers 7.12502
rthumb 10.3176 -5.10758
lclavicle -6.06293e-015 4.96962e-015
lhumerus -43.4196 8.21358 81.7131
lradius 31.9479
lwrist -32.5466
lhand -0.2401 41.4636
lfingers 7.12502
lthumb 25.3604 69.7972
rfemur -23.9611 1.61061 21.0797
rtibia 46.8282
rfoot -19.8313 -25.0323
rtoes 26.317
lfemur -19.3197 -16.4098 -23.6318
ltibia 25.0747
lfoot -12.188 13.3372
ltoes 5.08287
1751
root 13.5928 16.8463 9.95612 -354.53 -7.56376 722.035
lowerback -3.62654 -0.546502 -2.95104
upperback -5.72089 -0.701544 0.433858
thorax -3.83115 -0.227805 2.09893
lowerneck -9.37449 0.165596 -3.62932
upperneck 17.4753 -0.517085 7.26613
head 6.88994 0.125818 2.91087
rclavicle -5.71506e-016 -3.97569e-016
rhumerus -42.8256 -0.00995013 -81.8942
rradius 24.5817
rwrist -7.81619
rhand -15.9886 24.4142
rfingers 7.12502
rthumb 10.2111 -5.31797
lclavicle -5.71506e-016 -3.97569e-016
lhumerus -43.2292 7.73395 81.9545
lradius 31.909
lwrist -32.2627
lhand -0.225339 41.0099
lfingers 7.12502
lthumb 25.3745 69.3415
rfemur -23.8421 2.16544 20.2594
rtibia 46.2331
rfoot -19.6741 -25.8039
rtoes 25.9145
lfemur -18.7538 -16.757 -23.7055
ltibia 24.401
lfoot -11.6863 13.6569
ltoes 3.85505
